<?xml version="1.0" encoding="UTF-8"?>
<svg id="Layer_1" data-name="Layer 1" xmlns="http://www.w3.org/2000/svg" version="1.1" viewBox="0 0 3091.35 448.48">
  <defs>
    <style>
      .cls-1 {
        fill: #402020;
      }

      .cls-1, .cls-2 {
        stroke-width: 0px;
      }

      .cls-2 {
        fill: #f45197;
      }
    </style>
  </defs>
  <g>
    <g>
      <path class="cls-2" d="M1428.63,319.58c0,87.37-62.9,115.58-146.92,116.7v.04h-83.21s0-45.89,0-45.89c1.66,0,3.32-.04,5-.14,38.32-2.42,69.42-33.52,71.84-71.84,2.83-44.79-32.66-81.99-76.84-81.99v-36.5c1.66,0,3.32-.04,5-.14,38.32-2.42,69.42-33.52,71.84-71.84,2.83-44.79-32.66-81.99-76.84-81.99V.07h52.27c81.11,0,162.62,29.23,162.62,109.78,0,54.3-38.03,84.31-91.9,100.35,60.59,7.27,107.14,38.63,107.14,109.38Z"/>
      <path class="cls-2" d="M1674.59,353.52h-6.32c-20.04,0-30.51-9.15-32.4-35.45-.21-2.98-.4-7.53-.56-13.18V.01s-83.53.02-83.53.02c-3.31,0-5.98,2.62-6.12,5.93-1.11,26.44-13.92,50.3-32.79,66.54-14.64,12.61-32.88,21.31-56.97,22.88-3.23.21-5.74,2.88-5.74,6.11v61.2c0,3.39,2.75,6.14,6.14,6.14h39.39s.05,110-.28,118.83c-.14,3.88-.68,25.82-.89,28.75-1.88,26.31-9.91,37.11-29.95,37.11h-8.27c-3.39,0-6.14,2.75-6.14,6.14v70.49c0,3.39,2.75,6.14,6.14,6.14h218.29c3.39,0,6.14-2.75,6.14-6.14v-70.49c0-3.39-2.75-6.14-6.14-6.14Z"/>
    </g>
    <g>
      <path class="cls-1" d="M1919.11,345.34h-5.47c-2.49,8.64-10.44,14.96-19.88,14.96-19.71,0-24.3-24.94-26.5-38.33-7.85-47.74-29.24-86.64-86.99-95.5,65.23-13.45,104.29-57.9,104.29-110.71,0-62.76-58.81-114.6-142.83-115.72v-.05l-106.43.02v46.44c.08-.01,9.82-1.25,14.17-1.3,52.16-.57,84.97,36.69,84.97,78.04,0,.05,0-.05,0,0,0,41.34-32.81,78.36-84.97,77.8-4.34-.05-14.02-1.28-14.16-1.3v36.6c61.55,2.82,68.81,51.76,70.59,61.56.61,3.34,1.71,12.95,1.71,22.31,0,71.52,21.25,128.31,110.17,128.31,98.12,0,117.72-70.62,101.32-103.13Z"/>
      <path class="cls-1" d="M1198.5,390.43c-44.21.04-79.67-37.17-76.84-81.99,2.42-38.32,33.52-69.42,71.84-71.84,1.68-.11,3.34-.14,5-.14v-36.5c-44.18,0-79.67-37.2-76.84-81.98,2.42-38.32,33.52-69.42,71.84-71.84,1.68-.11,3.35-.14,5-.14V.07h-230.5c-3.39,0-6.14,2.74-6.14,6.14v70.42c.01,3.39,2.76,6.14,6.15,6.14h8.57c23.27,0,28.94,13.82,30.82,41.5,1.89,27.65,1.89,153.85,0,185.92-1.89,32.07-6.81,43.37-34.59,43.37-.03,0-2.34,0-4.84,0-3.39,0-6.13,2.75-6.13,6.14v70.49c0,3.39,2.75,6.14,6.14,6.14l230.5-.02v-45.9Z"/>
    </g>
  </g>
  <g>
    <g>
      <g>
        <path class="cls-1" d="M132.87,260.07c0,28.39-20.01,45.61-59.33,45.61H3.73c-2.33,0-3.73-1.39-3.73-3.73v-155.44c0-2.33,1.4-3.72,3.73-3.72h59.11c39.55,0,59.1,16.76,59.1,43.98,0,16.76-7.44,28.62-20.71,34.21v.47c19.78,3.26,31.65,16.76,31.65,38.63ZM60.97,173.74h-23.73v33.51h23.73c16.52,0,22.8-5.35,22.8-16.75s-6.28-16.76-22.8-16.76ZM94.24,256.12c0-12.8-6.75-18.38-24.43-18.38h-32.57v37h32.57c17.68,0,24.43-5.58,24.43-18.62Z"/>
        <path class="cls-1" d="M302.03,305.68h-31.65c-1.86,0-3.49-.7-4.19-3.03l-9.3-25.36h-69.58l-9.3,25.36c-.7,2.33-2.33,3.03-4.42,3.03h-31.18c-2.8,0-4.19-1.63-3.03-4.42l60.73-155.44c.7-2.09,2.56-3.03,4.42-3.03h34.9c2.09,0,3.95.93,4.65,3.03l60.97,155.44c.93,2.79-.24,4.42-3.03,4.42ZM244.55,244.02l-22.11-60.03h-.69l-22.11,60.03h44.91Z"/>
        <path class="cls-1" d="M311.09,259.37c-.46-2.56,1.16-4.18,3.73-4.18h29.79c2.33,0,3.49,1.16,4.19,3.49,2.79,11.64,11.87,17.22,27.92,17.22,17.92,0,26.3-6.98,26.3-17.69,0-8.84-5.82-15.36-21.64-17.91l-23.03-3.73c-32.11-5.35-46.78-21.18-46.78-46.77,0-30.25,21.88-50.03,63.06-50.03s61.21,17.92,64,49.57c.46,2.56-.94,3.95-3.49,3.95h-30.02c-2.09,0-3.49-1.39-3.95-3.72-1.64-11.64-10.24-16.99-26.53-16.99-17.68,0-25.12,6.51-25.12,16.99,0,8.84,5.58,13.73,24.66,16.76l23.03,3.72c30.26,4.89,43.51,20.94,43.51,46.77,0,33.51-23.5,51.89-63.76,51.89s-62.36-18.15-65.85-49.33Z"/>
        <path class="cls-1" d="M602.19,305.68h-33.74c-2.33,0-3.5-1.16-3.96-3.49-5.58-36.3-21.87-48.63-52.82-48.63h-8.14v48.4c0,2.33-1.64,3.73-3.96,3.73h-30.01c-2.33,0-3.73-1.39-3.73-3.73v-155.44c0-2.33,1.4-3.72,3.73-3.72h30.01c2.33,0,3.96,1.39,3.96,3.72v70.97h13.96l43.05-72.14c.93-1.86,2.56-2.56,4.65-2.56h35.37c3.03,0,4.19,1.86,2.55,4.65l-46.77,77.96c26.76,11.87,44.21,37,49.57,76.09.23,2.56-1.16,4.19-3.73,4.19Z"/>
        <path class="cls-1" d="M632.19,301.96v-155.44c0-2.33,1.4-3.72,3.73-3.72h30.01c2.33,0,3.96,1.39,3.96,3.72v155.44c0,2.33-1.64,3.73-3.96,3.73h-30.01c-2.33,0-3.73-1.39-3.73-3.73Z"/>
        <path class="cls-1" d="M701.99,301.96v-155.44c0-2.33,1.4-3.72,3.73-3.72h29.09c2.09,0,3.73.7,4.89,2.33l69.34,97.73h.46v-96.34c0-2.33,1.4-3.72,3.73-3.72h30.02c2.33,0,3.95,1.39,3.95,3.72v155.44c0,2.33-1.63,3.73-3.95,3.73h-29.32c-1.86,0-3.49-.7-4.65-2.33l-69.35-97.5h-.23v96.1c0,2.33-1.64,3.73-3.96,3.73h-30.01c-2.33,0-3.73-1.39-3.73-3.73Z"/>
      </g>
      <g>
        <path class="cls-1" d="M2131.53,305.68h-33.74c-2.33,0-3.73-1.16-4.19-3.49-6.51-34.91-20.02-46.54-44.45-46.54h-9.07v46.3c0,2.33-1.64,3.73-3.96,3.73h-30.01c-2.33,0-3.73-1.39-3.73-3.73v-155.44c0-2.33,1.4-3.72,3.73-3.72h63.76c40.25,0,63.52,21.18,63.52,56.08,0,22.1-9.54,39.56-27,48.63,14.43,10.24,24.67,29.55,28.62,53.99.46,2.56-.93,4.19-3.49,4.19ZM2094.76,198.88c0-13.97-8.61-21.41-25.83-21.41h-28.85v43.05h28.85c17.22,0,25.83-7.45,25.83-21.64Z"/>
        <path class="cls-1" d="M2146.83,224.24c0-47.94,36.76-84.47,84.93-84.47s84.94,36.53,84.94,84.47-36.77,84.47-84.94,84.47-84.93-36.54-84.93-84.47ZM2278.07,224.24c0-28.39-18.39-49.1-46.31-49.1s-46.3,20.71-46.3,49.1,18.38,49.1,46.3,49.1,46.31-20.71,46.31-49.1Z"/>
        <path class="cls-1" d="M2469.28,260.07c0,28.39-20.02,45.61-59.34,45.61h-69.8c-2.33,0-3.73-1.39-3.73-3.73v-155.44c0-2.33,1.4-3.72,3.73-3.72h59.1c39.56,0,59.11,16.76,59.11,43.98,0,16.76-7.44,28.62-20.71,34.21v.47c19.78,3.26,31.65,16.76,31.65,38.63ZM2397.38,173.74h-23.74v33.51h23.74c16.52,0,22.8-5.35,22.8-16.75s-6.28-16.76-22.8-16.76ZM2430.65,256.12c0-12.8-6.75-18.38-24.43-18.38h-32.58v37h32.58c17.68,0,24.43-5.58,24.43-18.62Z"/>
        <path class="cls-1" d="M2625.64,260.07c0,28.39-20.02,45.61-59.34,45.61h-69.8c-2.33,0-3.73-1.39-3.73-3.73v-155.44c0-2.33,1.4-3.72,3.73-3.72h59.1c39.56,0,59.11,16.76,59.11,43.98,0,16.76-7.44,28.62-20.71,34.21v.47c19.78,3.26,31.65,16.76,31.65,38.63ZM2553.74,173.74h-23.74v33.51h23.74c16.52,0,22.8-5.35,22.8-16.75s-6.28-16.76-22.8-16.76ZM2587.01,256.12c0-12.8-6.75-18.38-24.43-18.38h-32.58v37h32.58c17.68,0,24.43-5.58,24.43-18.62Z"/>
        <path class="cls-1" d="M2649.13,301.96v-155.44c0-2.33,1.4-3.72,3.73-3.72h30.01c2.33,0,3.96,1.39,3.96,3.72v155.44c0,2.33-1.64,3.73-3.96,3.73h-30.01c-2.33,0-3.73-1.39-3.73-3.73Z"/>
        <path class="cls-1" d="M2718.94,301.96v-155.44c0-2.33,1.4-3.72,3.73-3.72h29.09c2.09,0,3.73.7,4.89,2.33l69.34,97.73h.46v-96.34c0-2.33,1.4-3.72,3.73-3.72h30.02c2.33,0,3.95,1.39,3.95,3.72v155.44c0,2.33-1.63,3.73-3.95,3.73h-29.32c-1.86,0-3.49-.7-4.65-2.33l-69.35-97.5h-.23v96.1c0,2.33-1.64,3.73-3.96,3.73h-30.01c-2.33,0-3.73-1.39-3.73-3.73Z"/>
        <path class="cls-1" d="M2885.48,259.37c-.46-2.56,1.16-4.18,3.73-4.18h29.79c2.33,0,3.49,1.16,4.19,3.49,2.79,11.64,11.87,17.22,27.92,17.22,17.92,0,26.3-6.98,26.3-17.69,0-8.84-5.82-15.36-21.64-17.91l-23.03-3.73c-32.11-5.35-46.77-21.18-46.77-46.77,0-30.25,21.87-50.03,63.06-50.03s61.2,17.92,63.99,49.57c.47,2.56-.93,3.95-3.49,3.95h-30.01c-2.1,0-3.5-1.39-3.96-3.72-1.63-11.64-10.24-16.99-26.52-16.99-17.69,0-25.13,6.51-25.13,16.99,0,8.84,5.59,13.73,24.67,16.76l23.03,3.72c30.25,4.89,43.51,20.94,43.51,46.77,0,33.51-23.51,51.89-63.76,51.89s-62.36-18.15-65.86-49.33Z"/>
      </g>
    </g>
    <g>
      <path class="cls-1" d="M3058.15,147.21c14.92,0,27.02,12.1,27.02,27.02s-12.1,27.02-27.02,27.02-27.02-12.1-27.02-27.02,12.1-27.02,27.02-27.02M3058.15,141.29c-18.16,0-32.94,14.78-32.94,32.94s14.78,32.94,32.94,32.94,32.94-14.78,32.94-32.94-14.78-32.94-32.94-32.94h0Z"/>
      <path class="cls-1" d="M3070.7,188.41h-6.15c-.42,0-.68-.21-.76-.64-1.19-6.36-3.65-8.49-8.1-8.49h-1.65v8.44c0,.42-.3.68-.72.68h-5.47c-.42,0-.68-.25-.68-.68v-28.34c0-.42.26-.68.68-.68h11.63c7.34,0,11.58,3.86,11.58,10.23,0,4.03-1.74,7.21-4.92,8.87,2.63,1.87,4.5,5.39,5.22,9.84.08.47-.17.76-.64.76ZM3063.99,168.93c0-2.55-1.57-3.9-4.71-3.9h-5.26v7.85h5.26c3.14,0,4.71-1.36,4.71-3.95Z"/>
    </g>
  </g>
</svg>